<?xml version="1.0"?>
<svg xmlns="http://www.w3.org/2000/svg" viewBox="0 0 64 64" width="512" height="512"><g id="mobile-gear-currency-megaphone-Digital_Marketing" data-name="mobile-gear-currency-megaphone-Digital Marketing"><rect x="30" y="56" width="4" height="2"/><path d="M14,47a2,2,0,0,0,2,2h4a2,2,0,0,0,2-2l.026-2.7a10.845,10.845,0,0,0,1.139-.475l1.907,1.907a2,2,0,0,0,2.827,0l2.83-2.829a2,2,0,0,0,0-2.828l-1.89-1.929A11.007,11.007,0,0,0,29.3,37H32a2,2,0,0,0,2-2V31a2,2,0,0,0-2-2l-2.7-.026a10.845,10.845,0,0,0-.475-1.139l1.907-1.907a2,2,0,0,0,0-2.827L27.9,20.272a2,2,0,0,0-2.828,0l-1.929,1.89A11.007,11.007,0,0,0,22,21.7V19a2,2,0,0,0-2-2H16a2,2,0,0,0-2,2l-.026,2.7a10.845,10.845,0,0,0-1.139.475l-1.906-1.906a2,2,0,0,0-2.828,0L5.271,23.1a2,2,0,0,0,0,2.828l1.89,1.929A11.007,11.007,0,0,0,6.7,29H4a2,2,0,0,0-2,2v4a2,2,0,0,0,2,2l2.7.026a10.845,10.845,0,0,0,.475,1.139L5.271,40.072a2,2,0,0,0,0,2.827L8.1,45.729a2,2,0,0,0,2.828,0l1.929-1.89A11.007,11.007,0,0,0,14,44.3Zm-.287-4.97a2.063,2.063,0,0,0-.883-.2,1.987,1.987,0,0,0-1.409.577L9.515,44.314,6.686,41.485l1.906-1.906a2.021,2.021,0,0,0,.378-2.292,9.837,9.837,0,0,1-.382-.929A2.022,2.022,0,0,0,6.7,35H4V31H6.7a2.022,2.022,0,0,0,1.89-1.359,9.929,9.929,0,0,1,.382-.928,2.021,2.021,0,0,0-.378-2.292L6.686,24.515l2.829-2.829,1.906,1.906a2.019,2.019,0,0,0,2.292.378,9.837,9.837,0,0,1,.929-.382A2.022,2.022,0,0,0,16,21.7V19h4v2.7a2.022,2.022,0,0,0,1.359,1.89,9.929,9.929,0,0,1,.928.382,2.022,2.022,0,0,0,2.292-.378l1.906-1.906,2.829,2.829-1.906,1.906a2.021,2.021,0,0,0-.378,2.292,9.837,9.837,0,0,1,.382.929A2.022,2.022,0,0,0,29.3,31H32v4H29.3a2.022,2.022,0,0,0-1.89,1.359,9.929,9.929,0,0,1-.382.928,2.021,2.021,0,0,0,.378,2.292l1.906,1.906-2.829,2.829-1.906-1.906a2.024,2.024,0,0,0-2.292-.378,9.837,9.837,0,0,1-.929.382A2.022,2.022,0,0,0,20,44.3V47H16V44.3a2.022,2.022,0,0,0-1.359-1.89A9.929,9.929,0,0,1,13.713,42.03Z"/><path d="M19,38V36.949A2.5,2.5,0,0,0,18.5,32h-1a.5.5,0,0,1,0-1h1a.5.5,0,0,1,.5.5h2a2.5,2.5,0,0,0-2-2.449V28H17v1.051A2.5,2.5,0,0,0,17.5,34h1a.5.5,0,0,1,0,1h-1a.5.5,0,0,1-.5-.5H15a2.5,2.5,0,0,0,2,2.449V38Z"/><path d="M26,33a8,8,0,1,0-8,8A8.009,8.009,0,0,0,26,33ZM12,33a6,6,0,1,1,6,6A6.006,6.006,0,0,1,12,33Z"/><path d="M61,36H51V25.92l5.66,2.02A.994.994,0,0,0,58,27V21h1a3,3,0,0,0,0-6H58V9a1.014,1.014,0,0,0-.42-.82,1.035,1.035,0,0,0-.92-.12L51,10.08V5a3.009,3.009,0,0,0-3-3H16a3.009,3.009,0,0,0-3,3V16h2V10H49v.8L42.83,13H35a1,1,0,0,0-1,1v.22l-3.24.81A1,1,0,0,0,30,16v4a1,1,0,0,0,.76.97l3.24.81V22a1,1,0,0,0,1,1h1v8a1,1,0,0,0,1,1h4a.989.989,0,0,0,.99-.89l.9-8.09L49,25.2V36H35a1,1,0,0,0-1,1V49a1,1,0,0,0,1,1H49v2H15V50H13v9a3.009,3.009,0,0,0,3,3H48a3.009,3.009,0,0,0,3-3V50H61a1,1,0,0,0,1-1V37A1,1,0,0,0,61,36ZM58,17h1a1,1,0,0,1,0,2H58ZM34,19.72l-2-.5V16.78l2-.5ZM40.1,30H38V23h2.88ZM42,21H36V15h6Zm7,38a1,1,0,0,1-1,1H16a1,1,0,0,1-1-1V54H49ZM15,8V5a1,1,0,0,1,1-1H48a1,1,0,0,1,1,1V8ZM44,21.3V14.7l12-4.28V25.58ZM60,48H36V38H60Z"/><rect x="38" y="40" width="4" height="2"/><rect x="44" y="40" width="14" height="2"/><rect x="38" y="44" width="6" height="2"/><rect x="46" y="44" width="11" height="2"/></g></svg>
